{"title":"Curious George 3 2015 1080p BluRay x264 AN0NYM0US DUAL","uid":12393146,"size":5451161414,"categoryP":"video","categoryS":"hd___movies","magnet":"?xt=urn:btih:19d57a11f334cc7a51d7d9644f418158a5ec3122&amp;dn=Curious+George+3+2015+1080p+BluRay+x264+AN0NYM0US+DUAL&amp;tr=udp%3A%2F%2Ftracker.openbittorrent.com%3A80&amp;tr=udp%3A%2F%2Fopen.demonii.com%3A1337&amp;tr=udp%3A%2F%2Ftracker.coppersurfer.tk%3A6969&amp;tr=udp%3A%2F%2Fexodus.desync.com%3A6969","seeders":0,"leechers":1,"uploader":"Alemao99","files":5,"time":1441922647,"description":"George is invited to attend a very important space mission, but a problem forced him to land in Africa. While the man with the yellow hat looks for it, George boldly explores the jungle and make new animal friends along the way.\n\nTitle in Brazil: George - The Curious 3\nOriginal Title: Curious George 3: Back to the Jungle\nProduction: 2015\nGenre: Animation / Children\nDuration: 81 min\nDirected by Phil Weinstein\nIMDb: http://www.imdb.com/title/tt4622340/\n\nSize: 5.8 GB\nFile extension: .MKV\nVideo Quality: BluRay\nVideo codec: H.264 / AVC\nAudio codec: AC3 5.1\nResolution: 1920 x 1080\nAudio: Portuguese / English\nSubtitles: Portuguese\n\n\nVideo\nID                                       : 1\nFormat                                   : AVC\nFormat/Info                              : Advanced Video Codec\nFormat profile                           : &lt;a class=&quot;__cf_email__&quot; href=&quot;/cdn-cgi/l/email-protection&quot; data-cfemail=&quot;1850717f7058542c3629&quot;&gt;[email&amp;#160;protected]&lt;/a&gt;&lt;script data-cfhash='f9e31' type=&quot;text/javascript&quot;&gt;\n/* &lt;![CDATA[ */!function(){try{var t=&quot;currentScript&quot;in document?document.currentScript:function(){for(var t=document.getElementsByTagName(&quot;script&quot;),e=t.length;e--;)if(t[e].getAttribute(&quot;data-cfhash&quot;))return t[e]}();if(t&amp;&amp;t.previousSibling){var e,r,n,i,c=t.previousSibling,a=c.getAttribute(&quot;data-cfemail&quot;);if(a){for(e=&quot;&quot;,r=parseInt(a.substr(0,2),16),n=2;a.length-n;n+=2)i=parseInt(a.substr(n,2),16)^r,e+=String.fromCharCode(i);e=document.createTextNode(e),c.parentNode.replaceChild(e,c)}t.parentNode.removeChild(t);}}catch(u){}}()/* ]]&gt; */&lt;/script&gt;\nFormat settings, CABAC                   : Yes\nFormat settings, ReFrames                : 4 frames\nCodec ID                                 : V_MPEG4/ISO/AVC\nDuration                                 : 1h 20mn\nBit rate                                 : 8 195 Kbps\nWidth                                    : 1 920 pixels\nHeight                                   : 1 080 pixels\nDisplay aspect ratio                     : 16:9\nFrame rate                               : 23.976 fps\nColor space                              : YUV\nChroma subsampling                       : 4:2:0\nBit depth                                : 8 bits\nScan type                                : Progressive\nBits/(Pixel*Frame)                       : 0.165\nStream size                              : 4.51 GiB (89%)\nTitle                                    : George.O.Curioso.3.2015.1080p.BluRay.x264-AN0NYM0US.DUAL-KALAZANS\nWriting library                          : x264 core 148 r2597 e86f3a1\nEncoding settings                        : cabac=1 / ref=4 / deblock=1:0:0 / analyse=0x3:0x113 / me=umh / subme=8 / psy=1 / psy_rd=1.00:0.00 / mixed_ref=1 / me_range=16 / chroma_me=1 / trellis=1 / 8x8dct=1 / cqm=0 / deadzone=21,11 / fast_pskip=0 / chroma_qp_offset=-2 / threads=12 / lookahead_threads=2 / sliced_threads=0 / nr=0 / decimate=1 / interlaced=0 / bluray_compat=0 / constrained_intra=0 / bframes=3 / b_pyramid=2 / b_adapt=2 / b_bias=0 / direct=3 / weightb=1 / open_gop=0 / weightp=2 / keyint=250 / keyint_min=23 / scenecut=40 / intra_refresh=0 / rc_lookahead=50 / rc=2pass / mbtree=1 / bitrate=8195 / ratetol=1.0 / qcomp=0.60 / qpmin=0 / qpmax=69 / qpstep=4 / cplxblur=20.0 / qblur=0.5 / ip_ratio=1.40 / aq=1:1.00\nLanguage                                 : English\nDefault                                  : Yes\nForced                                   : No\nDURATION                                 : 01:20:30.242000000\nNUMBER_OF_FRAMES                         : 115810\nNUMBER_OF_BYTES                          : 4947426876\n_STATISTICS_WRITING_APP                  : mkvmerge v8.2.0 ('World of Adventure') 64bit\n_STATISTICS_WRITING_DATE_UTC             : 2015-08-22 01:56:52\n_STATISTICS_TAGS                         : BPS DURATION NUMBER_OF_FRAMES NUMBER_OF_BYTES\n\nAudio #1\nID                                       : 2\nFormat                                   : AC-3\nFormat/Info                              : Audio Coding 3\nMode extension                           : CM (complete main)\nFormat settings, Endianness              : Big\nCodec ID                                 : A_AC3\nDuration                                 : 1h 20mn\nBit rate mode                            : Constant\nBit rate                                 : 384 Kbps\nChannel(s)                               : 6 channels\nChannel positions                        : Front: L C R, Side: L R, LFE\nSampling rate                            : 48.0 KHz\nBit depth                                : 16 bits\nCompression mode                         : Lossy\nStream size                              : 221 MiB (4%)\nTitle                                    : AC3 5.1 - KALAZANS\nLanguage                                 : Portuguese\nDefault                                  : Yes\nForced                                   : Yes\n\nAudio #2\nID                                       : 3\nFormat                                   : AC-3\nFormat/Info                              : Audio Coding 3\nMode extension                           : CM (complete main)\nFormat settings, Endianness              : Big\nCodec ID                                 : A_AC3\nDuration                                 : 1h 20mn\nBit rate mode                            : Constant\nBit rate                                 : 448 Kbps\nChannel(s)                               : 6 channels\nChannel positions                        : Front: L C R, Side: L R, LFE\nSampling rate                            : 48.0 KHz\nBit depth                                : 16 bits\nCompression mode                         : Lossy\nStream size                              : 258 MiB (5%)\nLanguage                                 : English\nDefault                                  : No\nForced                                   : No\n\n\n\nSEED PLEASE\n\nENJOY","torrent":{"xt":"urn:btih:19d57a11f334cc7a51d7d9644f418158a5ec3122","amp;dn":"Curious+George+3+2015+1080p+BluRay+x264+AN0NYM0US+DUAL","amp;tr":["udp%3A%2F%2Ftracker.openbittorrent.com%3A80","udp%3A%2F%2Fopen.demonii.com%3A1337","udp%3A%2F%2Ftracker.coppersurfer.tk%3A6969","udp%3A%2F%2Fexodus.desync.com%3A6969"],"infoHash":"19d57a11f334cc7a51d7d9644f418158a5ec3122","infoHashBuffer":{"type":"Buffer","data":[25,213,122,17,243,52,204,122,81,215,217,100,79,65,129,88,165,236,49,34]},"announce":[],"urlList":[]}}